<?xml version="1.0" standalone="no"?>
<!DOCTYPE svg PUBLIC "-//W3C//DTD SVG 20010904//EN"
 "http://www.w3.org/TR/2001/REC-SVG-20010904/DTD/svg10.dtd">
<svg version="1.0" xmlns="http://www.w3.org/2000/svg"
 width="512.000000pt" height="512.000000pt" viewBox="0 0 512.000000 512.000000"
 preserveAspectRatio="xMidYMid meet">
<metadata>
Created by potrace 1.14, written by Peter Selinger 2001-2017
</metadata>
<g transform="translate(0.000000,512.000000) scale(0.100000,-0.100000)"
fill="#000000" stroke="none">
<path d="M952 5103 c-43 -21 -79 -64 -92 -111 -6 -24 -10 -309 -10 -809 l0
-773 -394 0 c-217 0 -402 -3 -411 -6 -47 -18 -45 46 -45 -1704 l0 -1642 29
-29 29 -29 2064 0 2064 0 44 23 c24 12 52 34 63 48 26 36 827 2282 827 2319 0
64 -51 136 -113 159 -17 7 -132 11 -297 11 l-269 0 -3 368 -3 369 -25 36 c-43
62 -82 77 -203 77 l-106 0 -3 363 c-3 409 -4 414 -81 465 -39 26 -48 27 -194
31 l-153 3 0 142 c0 130 -2 147 -23 187 -39 73 -67 83 -247 89 l-155 5 -5 155
c-6 180 -18 213 -94 249 -42 21 -50 21 -1102 21 -954 0 -1062 -2 -1092 -17z
m1953 -283 l0 -125 -760 -5 -760 -5 -33 -23 c-18 -13 -41 -41 -52 -62 -20 -38
-20 -63 -20 -1040 l0 -1000 -125 0 -125 0 -2 403 c-2 221 -2 759 0 1195 l2
792 938 -2 937 -3 0 -125z m855 -1495 l0 -765 -186 0 -186 0 76 81 c283 305
270 772 -29 1064 -149 146 -325 218 -536 218 -122 0 -219 -23 -334 -79 -154
-75 -269 -188 -345 -338 -62 -124 -82 -210 -82 -346 1 -220 69 -384 226 -547
l50 -53 -267 0 -267 0 0 765 0 765 940 0 940 0 0 -765z m-661 395 c88 -31 204
-112 258 -179 59 -74 110 -179 129 -271 34 -160 -12 -347 -118 -481 l-40 -51
-20 58 c-25 74 -47 107 -111 166 l-50 46 26 31 c66 79 86 220 45 328 -29 79
-112 162 -191 191 -126 48 -266 21 -358 -69 -122 -118 -142 -298 -49 -435 31
-46 37 -64 21 -64 -15 0 -102 -93 -121 -130 -10 -19 -23 -55 -30 -79 l-12 -45
-34 40 c-46 54 -99 157 -118 230 -20 78 -21 222 -1 299 28 110 72 184 159 270
86 85 152 125 259 157 88 25 266 19 356 -12z m-101 -339 c89 -63 95 -195 13
-264 -89 -74 -215 -47 -262 57 -24 53 -24 90 2 143 30 63 87 95 160 90 37 -2
66 -10 87 -26z m-2148 -486 c0 -190 -3 -345 -7 -345 -5 0 -87 -14 -182 -30
-96 -16 -176 -28 -176 -27 -5 7 -258 711 -262 727 -5 20 -1 20 311 20 l316 0
0 -345z m3410 5 l0 -340 -80 0 -80 0 0 340 0 340 80 0 80 0 0 -340z m506 -542
c-3 -13 -178 -507 -389 -1098 l-384 -1075 -1887 -3 c-1795 -2 -1888 -1 -1884
15 5 17 758 2126 773 2166 7 16 106 17 1892 17 l1885 0 -6 -22z"/>
<path d="M1844 2202 c-97 -34 -175 -117 -209 -221 -22 -67 -17 -177 13 -243
29 -67 102 -141 166 -169 l54 -24 4 -120 c5 -142 22 -189 90 -251 78 -72 49
-69 773 -69 638 0 651 0 695 21 58 27 108 77 134 134 16 35 21 71 24 168 3 84
8 122 16 122 22 0 97 46 138 85 23 22 53 65 67 95 22 47 26 69 26 150 0 84 -3
102 -28 152 -32 65 -100 131 -167 161 -70 31 -190 34 -262 7 -78 -29 -150 -96
-190 -177 -28 -57 -32 -75 -31 -141 1 -88 18 -143 64 -207 35 -48 117 -110
162 -121 l27 -6 0 -93 c0 -52 -4 -105 -10 -120 -21 -54 -27 -55 -668 -55 -405
0 -599 3 -621 11 -47 17 -61 53 -61 162 l0 95 28 7 c42 10 119 63 152 105 41
52 68 118 76 189 12 111 -49 246 -142 310 -87 60 -218 78 -320 43z"/>
</g>
</svg>
